<?xml version="1.0" encoding="UTF-8"?>
<svg viewBox="0 0 309.54 266.26" xmlns="http://www.w3.org/2000/svg">
 <g stroke="white">
  <path d="m161.68 88.716l14.461 10.918-116.45 125.38-14.695-9.979 116.68-126.32z"/>
  <path d="m121.94 193.15h-31.968v44.378h37.451l7.096-17.369-12.579-27.009z"/>
 </g>
 <path d="m78.672 237.6v5.087h39.457v-5.087h-39.457z"/>
 <g stroke="white">
  <path d="m207.55 126.64h66v15.762h-66v-15.762z"/>
  <path d="m94.299 201.57h9.952v16.343h-9.952v-16.343z"/>
  <path d="m107.7 201.57h10.762l7.284 16.343h-18.046v-16.343z"/>
  <path d="m35.819 212.07h54.151v25.454h-54.151v-25.454z"/>
 </g>
 <path d="m89.969 197.12v0.188h34.156v-0.188h-34.156z"/>
 <g stroke="white">
  <path d="m220.24 29.748l8.999 6.6136-55.755 61.186-9.344-7.1016 56.1-60.698z"/>
  <path d="m220.24 29.748l8.999 6.6136 11.584 3.5201 6.12-6.9641-19.101-15.92-9.835 9.569 2.233 3.1818z"/>
 </g>
 <path d="m223.98 20.68h8.11l2.844 2.2904h-13.283l2.329-2.2904z"/>
 <path d="m218.8 25.962h19.715l2.798 2.2903h-22.186l-0.988-1.4148 0.661-0.8755z"/>
 <path d="m221.97 30.87h22.326l2.657 2.2903h-21.906l-3.077-2.2903z"/>
 <path d="m229.57 36.152h14.681l-2.376 2.2903h-5.592l-6.713-2.2903z"/>
 <path d="m239.08 75.489l7.15-0.0373 3.438-15.164-14.242-0.2012 3.654 15.402z" stroke="white"/>
 <path d="m238.57 60.201l8.461 10.196-0.571 2.8678-10.454-13.125 2.564 0.0615z"/>
 <path d="m244.22 60.201l4.179 5.2835-0.374 2.2355-6.368-7.5805 2.563 0.0615z"/>
 <path d="m237.16 65.698l7.975 9.7101-2.419-0.0025-4.568-5.732-0.988-3.9756z"/>
 <path d="m238.41 39.216v20.875h0.21899v-20.875h-0.21899z"/>
 <path d="m246.81 33.185v26.906h0.21899v-26.906h-0.21899z"/>
 <path d="m241.09 75.652h2.251v4.2612c2.985 0.1364 4.159 3.3086 4.131 4.9486-0.050995 3.0379-2.454 4.6779-5.256 4.6779-3.241 0-5.079-2.9787-6.027-6.6129 0.677-0.2146 1.458-0.1184 1.665 0.2939 0.94199 2.0631 2.38 3.1246 4.143 3.2177 0.806-0.066605 2.087-0.2601 2.102-1.8356 0.015991-1.5037-0.315-2.7429-3.009-2.7101v-6.2407z"/>
 <path d="m244.09 87.841l-0.188 0.125 25.719 39.094 0.187-0.125-25.718-39.094z"/>
 <path d="m240.81 87.841l-27.687 39.094 0.187 0.125 27.657-39.094-0.157-0.125z"/>
 <g stroke="white">
  <path d="m113.84 167.11c5.65 6.477 4.01 6.856 3.276 7.928-0.743 1.087-1.122 1.827-8.974-2.284 1.9-1.881 3.799-3.762 5.698-5.644z"/>
  <path d="m102.28 192.83c2.051-5.439 3.776-4.957 5.496-5.026 1.721-0.067993 2.805-0.31599 5.003 5.05-3.5-0.007996-6.999-0.015991-10.499-0.024002z"/>
  <path d="m112.04 174.49l2.613 1.116-5.077 12.324-3.29 0.097 5.754-13.537z"/>
 </g>
</svg>
